HIERARCHY
ROOT Hips
{
	OFFSET 0.00 0.00 0.00
	CHANNELS 6 Xposition Yposition Zposition Yrotation Xrotation Zrotation
	JOINT Spine
	{
		OFFSET	0.0000	9.2263	1.5771
		CHANNELS 3 Xrotation Yrotation Zrotation
		JOINT Spine1
		{
			OFFSET	0.0000	16.2540	-0.1656
			CHANNELS 3 Xrotation Yrotation Zrotation
			JOINT Spine2
			{
				OFFSET	0.0000	13.6396	-1.2923
				CHANNELS 3 Xrotation Yrotation Zrotation
				JOINT Neck
				{
					OFFSET	0.0000	13.8774	-4.3542
					CHANNELS 3 Xrotation Yrotation Zrotation
					JOINT Neck1
					{
						OFFSET	0.0000	4.3400	0.9269
						CHANNELS 3 Xrotation Yrotation Zrotation
						JOINT Head
						{
							OFFSET	0.0000	4.0266	0.8585
							CHANNELS 3 Xrotation Yrotation Zrotation
							End Site
							{
								OFFSET 0.0000 23.0297 0.1231
							}
						}
					}
				}
				JOINT LeftShoulder
				{
					OFFSET	6.1442	10.1870	-3.7932
					CHANNELS 3 Zrotation Xrotation Yrotation
					JOINT LeftArm
					{
						OFFSET	12.3191	-1.1130	-1.7935
						CHANNELS 3 Zrotation Xrotation Yrotation
						JOINT LeftForeArm
						{
							OFFSET	27.6870	0.0000	0.0000
							CHANNELS 3 Xrotation Zrotation Yrotation
							JOINT LeftHand
							{
								OFFSET	27.8738	0.0000	0.0000
								CHANNELS 3 Zrotation Yrotation Xrotation
								JOINT LeftHandThumb1
								{
									OFFSET	2.3785	-1.0029	2.6209
									CHANNELS 3 Zrotation Xrotation Yrotation
									JOINT LeftHandThumb2
									{
										OFFSET	3.3624	-1.0029	2.8398
										CHANNELS 3 Zrotation Xrotation Yrotation
										JOINT LeftHandThumb3
										{
											OFFSET	4.5018	-1.3445	2.1783
											CHANNELS 3 Zrotation Xrotation Yrotation
											End Site
											{
												OFFSET 2.6000 -1.0000 1.0000
											}
										}
									}
								}
								JOINT LeftHandMiddle1
								{
									OFFSET	10.4639	0.6148	0.4298
									CHANNELS 3 Zrotation Xrotation Yrotation
									JOINT LeftHandMiddle2
									{
										OFFSET	5.7921	0.0000	0.0000
										CHANNELS 3 Zrotation Xrotation Yrotation
										JOINT LeftHandMiddle3
										{
											OFFSET	3.7132	0.0000	0.0000
											CHANNELS 3 Zrotation Xrotation Yrotation
											End Site
											{
												OFFSET 2.3000 0.0000 0.0000
											}
										}
									}
								}
								JOINT LeftHandIndex1
								{
									OFFSET	10.3945	0.6148	2.7055
									CHANNELS 3 Zrotation Xrotation Yrotation
									JOINT LeftHandIndex2
									{
										OFFSET	5.5493	0.0000	0.0000
										CHANNELS 3 Zrotation Xrotation Yrotation
										JOINT LeftHandIndex3
										{
											OFFSET	3.3911	0.0000	0.0000
											CHANNELS 3 Zrotation Xrotation Yrotation
											End Site
											{
												OFFSET 2.5000 0.0000 0.0000
											}
										}
									}
								}
								JOINT LeftHandRing1
								{
									OFFSET	10.3252	0.3211	-1.8755
									CHANNELS 3 Zrotation Xrotation Yrotation
									JOINT LeftHandRing2
									{
										OFFSET	5.4452	0.0000	0.0000
										CHANNELS 3 Zrotation Xrotation Yrotation
										JOINT LeftHandRing3
										{
											OFFSET	3.7132	0.0000	0.0000
											CHANNELS 3 Zrotation Xrotation Yrotation
											End Site
											{
												OFFSET 2.0000 0.0000 0.0000
											}
										}
									}
								}
								JOINT LeftHandPinky1
								{
									OFFSET	10.0130	-0.0783	-3.9671
									CHANNELS 3 Zrotation Xrotation Yrotation
									JOINT LeftHandPinky2
									{
										OFFSET	3.6763	0.0000	0.0000
										CHANNELS 3 Zrotation Xrotation Yrotation
										JOINT LeftHandPinky3
										{
											OFFSET	2.8113	0.0000	0.0000
											CHANNELS 3 Zrotation Xrotation Yrotation
											End Site
											{
												OFFSET 2.9000 0.0000 0.0000
											}
										}
									}
								}
							}
						}
					}
				}
				JOINT RightShoulder
				{
					OFFSET	-6.1402	10.1870	-3.7932
					CHANNELS 3 Zrotation Xrotation Yrotation
					JOINT RightArm
					{
						OFFSET	-12.3231	-1.1130	-1.7935
						CHANNELS 3 Zrotation Xrotation Yrotation
						JOINT RightForeArm
						{
							OFFSET	-27.6870	0.0000	0.0000
							CHANNELS 3 Xrotation Zrotation Yrotation
							JOINT RightHand
							{
								OFFSET	-27.8738	0.0000	0.0000
								CHANNELS 3 Zrotation Yrotation Xrotation
								JOINT RightHandThumb1
								{
									OFFSET	-2.5178	-0.9367	2.5137
									CHANNELS 3 Zrotation Xrotation Yrotation
									JOINT RightHandThumb2
									{
										OFFSET	-3.2638	-1.0870	2.9669
										CHANNELS 3 Zrotation Xrotation Yrotation
										JOINT RightHandThumb3
										{
											OFFSET	-4.4165	-1.3703	2.1350
											CHANNELS 3 Zrotation Xrotation Yrotation
											End Site
											{
												OFFSET -2.6000 -1.0000 1.0000
											}
										}
									}
								}
								JOINT RightHandIndex1
								{
									OFFSET	-10.4665	0.4896	2.7120
									CHANNELS 3 Zrotation Xrotation Yrotation
									JOINT RightHandIndex2
									{
										OFFSET	-5.3768	0.0000	0.0000
										CHANNELS 3 Zrotation Xrotation Yrotation
										JOINT RightHandIndex3
										{
											OFFSET	-3.3855	0.0000	0.0000
											CHANNELS 3 Zrotation Xrotation Yrotation
											End Site
											{
												OFFSET -2.6000 0.0000 0.0000
											}
										}
									}
								}
								JOINT RightHandMiddle1
								{
									OFFSET	-10.7596	0.4896	0.4278
									CHANNELS 3 Zrotation Xrotation Yrotation
									JOINT RightHandMiddle2
									{
										OFFSET	-5.6168	0.0000	0.0000
										CHANNELS 3 Zrotation Xrotation Yrotation
										JOINT RightHandMiddle3
										{
											OFFSET	-3.7364	0.0000	0.0000
											CHANNELS 3 Zrotation Xrotation Yrotation
											End Site
											{
												OFFSET -2.3000 0.0000 0.0000
											}
										}
									}
								}
								JOINT RightHandRing1
								{
									OFFSET	-10.4702	0.3879	-1.9363
									CHANNELS 3 Zrotation Xrotation Yrotation
									JOINT RightHandRing2
									{
										OFFSET	-5.4013	0.0000	0.0000
										CHANNELS 3 Zrotation Xrotation Yrotation
										JOINT RightHandRing3
										{
											OFFSET	-3.3916	0.0000	0.0000
											CHANNELS 3 Zrotation Xrotation Yrotation
											End Site
											{
												OFFSET -2.2000 0.0000 0.0000
											}
										}
									}
								}
								JOINT RightHandPinky1
								{
									OFFSET	-9.9715	-0.1191	-3.9540
									CHANNELS 3 Zrotation Xrotation Yrotation
									JOINT RightHandPinky2
									{
										OFFSET	-3.6528	0.0000	0.0000
										CHANNELS 3 Zrotation Xrotation Yrotation
										JOINT RightHandPinky3
										{
											OFFSET	-2.7820	0.0000	0.0000
											CHANNELS 3 Zrotation Xrotation Yrotation
											End Site
											{
												OFFSET -2.9000 0.0000 0.0000
											}
										}
									}
								}
							}
						}
					}
				}
			}
		}
	}
	JOINT LeftUpLeg
	{
		OFFSET	9.6338	-3.2733	0.0000
		CHANNELS 3 Xrotation Yrotation Zrotation
		JOINT LeftLeg
		{
			OFFSET	0.0000	-41.7300	-1.7300
			CHANNELS 3 Xrotation Yrotation Zrotation
			JOINT LeftFoot
			{
				OFFSET	0.0126	-39.1900	-0.8477
				CHANNELS 3 Xrotation Yrotation Zrotation
				JOINT LeftToeBase
				{
					OFFSET	-0.1833	-12.1931	8.2823
					CHANNELS 3 Xrotation Yrotation Zrotation
					End Site
					{
						OFFSET 0.0000 0.0000 10.1681
					}
				}
			}
		}
	}
	JOINT RightUpLeg
	{
		OFFSET	-9.6338	-3.2733	0.0000
		CHANNELS 3 Xrotation Yrotation Zrotation
		JOINT RightLeg
		{
			OFFSET	0.0000	-41.7300	-1.7300
			CHANNELS 3 Xrotation Yrotation Zrotation
			JOINT RightFoot
			{
				OFFSET	0.0126	-39.1900	-0.8477
				CHANNELS 3 Xrotation Yrotation Zrotation
				JOINT RightToeBase
				{
					OFFSET	-0.1833	-12.1931	8.2823
					CHANNELS 3 Xrotation Yrotation Zrotation
					End Site
					{
						OFFSET 0.0032 0.0000 10.1681
					}
				}
			}
		}
	}
}
MOTION
Frames: 4
Frame Time: 0.0333333
0.1512 87.2636 0.6671 -3.5460 -0.3515 1.3518 2.0840 0.6646 -0.1952 3.1402 1.3452 -0.4665 3.1391 1.3524 -0.4539 -4.2052 -2.1634 -2.0560 -0.0000 0.0000 -0.0000 -15.1180 -14.4094 3.3050 3.3514 0.8420 -7.3204 -76.1441 23.9258 15.9323 -0.0000 -0.0000 -104.0515 10.3748 10.4301 13.7193 -12.3312 4.3358 10.6251 -2.6297 -0.8956 3.4731 3.2825 -1.4586 7.7813 -42.1691 1.3245 -4.6751 -45.0057 -0.2974 0.7179 -31.8155 -0.1525 0.5352 -34.0578 1.1803 -11.7837 -48.5351 -0.3430 0.7608 -30.9886 -0.1449 0.5227 -45.1515 1.3708 -1.8036 -41.2437 -0.2519 0.6693 -37.0529 -0.2050 0.6117 -44.7856 1.3711 4.5892 -42.2757 2.4842 -2.3413 -30.6702 -0.1420 0.5179 3.9124 0.7766 1.6047 71.9615 34.7496 -11.1468 0.0000 -0.0000 111.5597 -15.5671 -0.9557 4.5235 9.5264 -0.7840 -18.6373 1.5106 -0.9211 6.2162 -5.0634 -2.9486 0.1427 48.1729 0.8918 2.3397 33.6892 -0.3837 -1.2672 37.2776 -0.4667 -1.3837 39.4207 0.8997 3.0523 40.2382 -0.5407 -1.4758 39.5702 -0.5236 -1.4553 46.9980 0.8947 -0.3064 26.5701 -0.2413 -1.0218 30.6183 -0.3185 -1.1635 54.1586 0.8456 -3.9766 46.1844 -0.7029 -1.6485 32.3508 -0.3546 -1.2225 -22.2197 5.3033 -2.5087 56.0798 3.9690 3.0947 -30.3045 -0.8279 2.5317 -5.5373 0.0000 -0.0000 -21.1467 -7.8138 -1.4347 56.9529 -10.3548 -4.3989 -29.3755 -4.2317 2.8381 -8.0292 -0.0000 -0.0000 
0.1366 88.2947 0.6139 -3.3103 0.1243 0.9885 1.8670 0.6357 -0.1276 2.7555 1.2844 -0.2987 2.7544 1.2904 -0.2873 -4.0443 -2.1661 -1.8314 -0.0000 0.0000 -0.0000 -15.6065 -14.0471 2.9316 4.8157 0.6817 -8.3246 -78.3472 24.0870 16.7274 -0.0000 -0.0000 -104.9896 12.0380 9.6160 13.2825 -11.9084 4.3308 10.6328 -2.6313 -0.8952 3.4788 3.2064 -1.4018 8.0448 -42.6195 1.3326 -5.1619 -45.1525 -0.2993 0.7198 -31.7129 -0.1516 0.5337 -34.2019 1.1840 -11.9268 -48.2742 -0.3395 0.7577 -30.8878 -0.1440 0.5212 -45.6563 1.3783 -1.9900 -41.3131 -0.2527 0.6702 -36.8696 -0.2030 0.6091 -45.5161 1.3817 4.5596 -42.9618 2.5120 -2.2993 -30.4650 -0.1402 0.5147 3.9147 0.9715 2.5800 70.9571 36.1739 -11.1912 0.0000 -0.0000 112.9250 -15.0340 0.9473 2.7229 9.1623 -0.7399 -18.7149 1.5106 -0.9211 6.2162 -5.0695 -2.9750 0.2340 47.9069 0.8935 2.5305 33.4782 -0.3790 -1.2602 37.1016 -0.4625 -1.3781 38.8863 0.8982 3.2918 39.8226 -0.5300 -1.4631 39.5838 -0.5218 -1.4558 46.7475 0.8957 -0.2563 26.4471 -0.2391 -1.0174 30.5312 -0.3159 -1.1605 54.0774 0.8464 -3.9208 46.2545 -0.7050 -1.6505 32.2943 -0.3534 -1.2206 -22.2467 5.0459 -2.5280 54.0359 3.9988 3.6545 -26.6756 -0.7570 2.4619 -7.3580 0.0000 -0.0000 -21.0146 -8.2359 -1.3382 54.6965 -10.3104 -4.2234 -25.4859 -3.5565 2.9552 -10.0334 -0.0000 -0.0000 
0.2129 91.2957 0.9128 -3.4799 0.4982 0.3309 1.4674 0.6934 0.1266 2.1933 1.4048 0.0439 2.1913 1.4122 0.0544 -4.1863 -2.1770 -1.5917 -0.0000 0.0000 -0.0000 -14.5637 -13.8334 3.0371 5.4565 0.6020 -8.6267 -78.6585 25.5375 17.5545 -0.0000 0.0000 -108.0989 12.8307 9.3935 13.7521 -11.5457 4.3161 10.6194 -2.5484 -0.9156 3.1623 3.1527 -1.3618 8.2306 -42.7299 1.3349 -5.6651 -45.1267 -0.2990 0.7195 -31.5895 -0.1504 0.5318 -34.2293 1.1856 -12.2137 -47.9038 -0.3347 0.7533 -30.6882 -0.1422 0.5181 -45.6379 1.3781 -2.1517 -41.2993 -0.2525 0.6700 -36.7269 -0.2015 0.6071 -45.4828 1.3812 4.5532 -43.3770 2.5286 -2.2737 -30.3527 -0.1392 0.5130 5.7011 1.2768 3.6954 66.8356 37.3978 -10.7263 0.0000 0.0000 117.0764 -14.8398 2.0463 1.7390 8.7517 -0.6113 -18.9372 1.5106 -0.9211 6.2162 -5.0745 -2.9966 0.3085 47.6349 0.8953 2.8340 33.2365 -0.3737 -1.2521 36.9653 -0.4592 -1.3738 38.5892 0.8977 3.6534 39.3054 -0.5168 -1.4472 39.6050 -0.5187 -1.4564 46.3819 0.8969 -0.2495 26.1044 -0.2330 -1.0052 30.4847 -0.3152 -1.1589 53.9624 0.8473 -3.7877 46.1325 -0.7015 -1.6471 32.2356 -0.3521 -1.2186 -20.6212 5.4169 -2.1597 47.3929 2.3926 4.6912 -14.3201 -0.4493 1.9582 -13.4037 0.0000 -0.0000 -18.7854 -9.1867 -1.4167 47.0970 -10.0077 -4.5006 -14.1967 -0.4122 5.5414 -13.4217 -0.0045 0.8153 
0.3713 95.3068 1.3287 -3.9273 0.9969 -0.2669 0.9709 0.7955 0.4263 1.5110 1.6159 0.4110 1.5073 1.6257 0.4197 -4.7945 -2.1969 -1.4401 -0.0000 0.0000 -0.0000 -12.4543 -13.8391 3.5147 4.9431 0.6641 -8.1333 -76.4024 27.6126 17.8500 0.0000 -0.0000 -112.6537 12.7826 10.0400 14.9560 -11.4603 4.3072 10.6059 -2.4817 -0.9319 2.9067 3.1051 -1.3262 8.3956 -42.5638 1.3326 -6.0340 -45.0590 -0.2981 0.7186 -31.4870 -0.1495 0.5302 -34.1603 1.1850 -12.4979 -47.6885 -0.3318 0.7508 -30.5238 -0.1407 0.5156 -45.2940 1.3731 -2.2237 -41.2720 -0.2522 0.6697 -36.6581 -0.2008 0.6061 -44.7929 1.3712 4.6277 -43.2955 2.5253 -2.2787 -30.3627 -0.1393 0.5132 7.1820 1.4068 3.9574 61.4614 38.8497 -8.4175 0.0000 -0.0000 121.9773 -14.4168 2.0898 2.8362 8.4223 -0.3958 -19.3085 1.5106 -0.9211 6.2162 -5.0855 -3.0444 0.4737 47.6571 0.8960 3.1974 32.9860 -0.3683 -1.2438 36.8365 -0.4561 -1.3697 38.9719 0.9004 4.0776 38.9098 -0.5069 -1.4349 39.6394 -0.5147 -1.4575 46.3119 0.8972 -0.2142 25.7762 -0.2273 -0.9934 30.5421 -0.3156 -1.1609 53.9080 0.8474 -3.5557 46.1475 -0.7019 -1.6475 32.1981 -0.3513 -1.2173 -18.4204 6.6480 -1.3663 39.5797 -0.0354 5.3604 -1.9806 -0.2276 -0.3469 -14.8881 0.0000 -0.0000 -15.6135 -10.7887 -1.8571 37.8031 -6.7613 -4.5699 -3.4252 0.8953 9.0227 -12.8375 0.0000 -0.0000 
